<svg width="270" height="207" viewBox="0 0 270 207" fill="none" xmlns="http://www.w3.org/2000/svg">
<path d="M82.026 14H17.974C16.92 14 15.9092 14.4187 15.164 15.164C14.4187 15.9092 14 16.92 14 17.974V82.027C14.0003 83.0808 14.4191 84.0913 15.1643 84.8364C15.9096 85.5815 16.9202 86 17.974 86H52.457V58.118H43.074V47.252H52.457V39.238C52.457 29.938 58.137 24.875 66.433 24.875C70.407 24.875 73.822 25.17 74.818 25.303V35.022L69.064 35.025C64.552 35.025 63.679 37.169 63.679 40.315V47.253H74.439L73.038 58.119H63.679V86H82.027C83.0808 85.9997 84.0913 85.5809 84.8364 84.8357C85.5815 84.0904 86 83.0798 86 82.026V17.974C86 16.92 85.5813 15.9092 84.836 15.164C84.0908 14.4187 83.08 14 82.026 14Z" fill="black"/>
<path d="M250.667 14H189.315C186.381 14 184 16.325 184 19.188V80.805C184 83.672 186.381 86 189.315 86H250.667C253.603 86 256 83.672 256 80.805V19.188C256 16.325 253.603 14 250.667 14ZM205.354 75.354H194.67V40.995H205.354V75.354ZM200.012 36.297C199.199 36.297 198.394 36.1368 197.642 35.8254C196.891 35.5141 196.208 35.0578 195.634 34.4826C195.059 33.9074 194.603 33.2245 194.292 32.473C193.981 31.7216 193.821 30.9162 193.822 30.103C193.822 28.4614 194.474 26.8871 195.635 25.7264C196.796 24.5656 198.37 23.9135 200.011 23.9135C201.653 23.9135 203.227 24.5656 204.388 25.7264C205.549 26.8871 206.201 28.4614 206.201 30.103C206.201 31.7449 205.549 33.3196 204.389 34.4811C203.228 35.6425 201.654 36.2957 200.012 36.297ZM245.35 75.354H234.683V58.646C234.683 54.66 234.605 49.535 229.132 49.535C223.574 49.535 222.727 53.876 222.727 58.357V75.355H212.052V40.995H222.297V45.687H222.443C223.869 42.987 227.353 40.138 232.549 40.138C243.355 40.138 245.351 47.252 245.351 56.507V75.354H245.35Z" fill="black"/>
<path d="M67.961 145.288C67.961 155.207 59.92 163.248 50.001 163.248C40.082 163.248 32.041 155.207 32.041 145.288C32.041 142.493 32.698 139.858 33.836 137.5H14V179.5C14 183.35 17.15 186.5 21 186.5H79C82.85 186.5 86 183.35 86 179.5V137.5H66.165C67.3447 139.927 67.9588 142.59 67.961 145.288Z" fill="black"/>
<path d="M79 113.5H21C17.15 113.5 14 116.65 14 120.5V134.5H35.665C38.943 130.151 44.135 127.328 50 127.328C55.865 127.328 61.057 130.151 64.335 134.5H86V120.5C86 116.65 82.85 113.5 79 113.5ZM19.756 131.216H17.15V121.121C17.1499 120.283 17.3973 119.464 17.8611 118.766C18.3249 118.068 18.9845 117.523 19.757 117.199V131.216H19.756ZM24.026 131.216H21.557V116.868H24.026V131.216ZM28.295 131.216H25.826V116.868H28.295V131.216ZM32.561 121.121V131.216H30.095V116.868H32.561V121.121ZM82.351 126.963C82.3511 127.521 82.2413 128.074 82.0277 128.59C81.8142 129.106 81.5011 129.575 81.1063 129.97C80.7116 130.365 80.2429 130.678 79.7271 130.892C79.2113 131.106 78.6584 131.216 78.1 131.216H71.191C70.6325 131.216 70.0795 131.106 69.5636 130.892C69.0477 130.678 68.5789 130.365 68.184 129.97C67.7892 129.575 67.476 129.106 67.2624 128.59C67.0488 128.074 66.9389 127.521 66.939 126.963V121.121C66.9389 120.563 67.0488 120.01 67.2624 119.494C67.476 118.978 67.7892 118.509 68.184 118.114C68.5789 117.719 69.0477 117.406 69.5636 117.192C70.0795 116.978 70.6325 116.868 71.191 116.868H78.1C78.6584 116.868 79.2114 116.978 79.7272 117.192C80.2431 117.406 80.7119 117.719 81.1066 118.114C81.5014 118.509 81.8145 118.978 82.028 119.494C82.2415 120.01 82.3513 120.563 82.351 121.121V126.963Z" fill="black"/>
<path d="M50.001 161.148C58.737 161.148 65.819 154.063 65.819 145.329C65.819 136.594 58.738 129.509 50.001 129.509C41.263 129.509 34.181 136.594 34.181 145.329C34.181 154.062 41.263 161.148 50.001 161.148ZM50 132.725C56.96 132.725 62.604 138.368 62.604 145.329C62.604 152.289 56.961 157.933 50 157.933C43.039 157.933 37.396 152.29 37.396 145.329C37.397 138.367 43.04 132.725 50 132.725Z" fill="black"/>
<path d="M255.5 142.833C254.75 136.583 254 132 251.75 130.333C249.5 128.25 230 127.833 215 127.833C200 127.833 180.5 128.25 178.25 130.333C176 132 175.25 136.583 174.5 142.833C173.75 149.083 173.75 152.833 173.75 157C173.75 161.167 173.75 164.917 174.5 171.167C175.25 177.417 176 182 178.25 183.667C180.5 185.75 200 186.167 215 186.167C230 186.167 249.5 185.75 251.75 183.667C254 182 254.75 177.417 255.5 171.167C256.25 164.917 256.25 161.167 256.25 157C256.25 152.833 256.25 149.083 255.5 142.833ZM207.5 172V142L230 157L207.5 172Z" fill="black"/>
</svg>
